# xmcd
#
# Track frame offsets: 
#        150
#        17104
#        33964
#        49676
#        68248
#        81075
#        97977
#        113909
#        131578
#        146299
#        164216
#        182869
#
# Disc length: 2755 seconds
#
# Revision: 0
# Processed by: cddbd v1.5.2PL0 Copyright (c) Steve Scherf et al.
# Submitted via: ExactAudioCopy v0.99pb3
#
DISCID=a10ac10c
DTITLE=Fathead - Building Full Of Blues
DYEAR=2007
DGENRE=Blues
TTITLE0=Jellyfish Blues
TTITLE1=Fire In The Hole
TTITLE2=What About Me?
TTITLE3=Bitter When I'm Old
TTITLE4=Katrina
TTITLE5=One Day The Sun Will Shine
TTITLE6=Apartment 10
TTITLE7=I Pity The Fool
TTITLE8=Too Many Heartaches
TTITLE9=Backwwods Paradise
TTITLE10=The Last Time
TTITLE11=Building Full Of Blues
EXTD=
EXTT0=
EXTT1=
EXTT2=
EXTT3=
EXTT4=
EXTT5=
EXTT6=
EXTT7=
EXTT8=
EXTT9=
EXTT10=
EXTT11=
PLAYORDER=
